<?xml version="1.0" standalone="no"?>
<!DOCTYPE svg PUBLIC "-//W3C//DTD SVG 20010904//EN"
 "http://www.w3.org/TR/2001/REC-SVG-20010904/DTD/svg10.dtd">
<svg version="1.0" xmlns="http://www.w3.org/2000/svg"
 width="500.000000pt" height="500.000000pt" viewBox="0 0 500.000000 500.000000"
 preserveAspectRatio="xMidYMid meet">
<metadata>
Created by potrace 1.14, written by Peter Selinger 2001-2017
</metadata>
<g transform="translate(0.000000,500.000000) scale(0.100000,-0.100000)"
fill="#000000" stroke="none">
<path d="M2340 4359 c-598 -36 -1250 -391 -1745 -949 -200 -225 -399 -503
-534 -745 -87 -157 -85 -191 20 -400 58 -115 187 -311 285 -435 81 -102 382
-405 441 -444 110 -73 253 2 253 131 0 55 -32 99 -141 196 -220 195 -434 464
-550 691 l-43 83 74 124 c290 484 695 904 1109 1149 208 123 418 207 626 250
234 48 597 47 794 -1 125 -31 181 -18 235 55 31 40 29 130 -2 174 -32 44 -80
66 -197 91 -181 38 -362 46 -625 30z"/>
<path d="M2810 3783 c-25 -2 -137 -10 -249 -18 -222 -17 -331 -37 -459 -84
-188 -68 -339 -169 -487 -323 -207 -215 -326 -480 -350 -778 -7 -80 -5 -92 28
-195 73 -227 92 -414 63 -610 -15 -102 -27 -148 -100 -390 -46 -150 -35 -235
36 -271 44 -23 87 -13 237 50 252 108 367 132 584 123 144 -6 237 -23 367 -68
53 -18 77 -21 149 -16 670 44 1191 605 1191 1281 0 242 -154 985 -244 1180
-38 84 -57 98 -151 115 -53 10 -497 13 -615 4z m604 -189 c21 -8 20 -47 -4
-164 -70 -330 -332 -1026 -373 -991 -7 5 -39 59 -71 120 -71 133 -144 224
-229 285 -80 57 -136 82 -257 116 -52 15 -96 32 -98 38 -4 13 127 118 263 211
213 145 528 315 675 365 89 30 75 27 94 20z m-916 -940 c105 -43 160 -168 118
-268 -9 -22 -118 -128 -327 -317 -358 -324 -895 -807 -923 -829 -11 -8 76 127
193 300 238 352 500 747 628 947 76 120 88 134 135 157 60 30 121 33 176 10z"/>
<path d="M4020 3658 c-47 -13 -98 -64 -111 -110 -19 -73 -5 -101 114 -232 205
-225 419 -492 578 -724 l64 -93 -29 -52 c-59 -106 -220 -342 -319 -465 -125
-157 -377 -411 -517 -522 -458 -364 -981 -544 -1453 -501 -182 17 -317 45
-391 81 -75 36 -109 38 -166 7 -54 -28 -80 -75 -80 -142 0 -126 131 -199 443
-247 184 -28 448 -30 621 -4 425 62 845 253 1226 556 140 111 378 346 507 500
239 284 473 655 489 775 11 77 -61 202 -292 511 -206 273 -506 619 -563 648
-39 20 -82 25 -121 14z"/>
</g>
</svg>
